<?xml version="1.0" encoding="UTF-8"?>
<svg version="1.1" xmlns="http://www.w3.org/2000/svg" width="500" height="500">
<path d="M0 0 C165 0 330 0 500 0 C500 165 500 330 500 500 C335 500 170 500 0 500 C0 335 0 170 0 0 Z " fill="#000000" transform="translate(0,0)"/>
<path d="M0 0 C1.16509598 -0.0049926 1.16509598 -0.0049926 2.35372925 -0.01008606 C3.98906875 -0.01511702 5.62441839 -0.01749558 7.25976562 -0.01733398 C9.71502374 -0.01950721 12.16982185 -0.03766745 14.625 -0.05664062 C55.22738257 -0.20377485 92.95922397 17.60307962 121.7421875 45.79296875 C140.24131013 64.38737915 153.20910527 88.1729432 160.4296875 113.29296875 C160.6246582 113.95989746 160.81962891 114.62682617 161.02050781 115.31396484 C164.31736226 127.51581505 164.94911649 139.92376676 164.87792969 152.48413086 C164.86717763 154.73253211 164.87791816 156.98013778 164.890625 159.22851562 C164.92445537 192.66938191 152.25864867 224.4856241 131.8671875 250.73046875 C131.39498779 251.33906738 130.92278809 251.94766602 130.4362793 252.57470703 C128.29756582 255.2711297 126.50373404 257.24360439 123.6171875 259.16796875 C123.18417429 252.42801135 122.75766685 245.68766369 122.33544922 238.94702148 C122.19140102 236.6591687 122.04592303 234.37140543 121.89892578 232.08374023 C120.33325305 207.68800292 120.33325305 207.68800292 120.6171875 197.16796875 C120.0190625 197.49796875 119.4209375 197.82796875 118.8046875 198.16796875 C116.6171875 199.16796875 116.6171875 199.16796875 113.6171875 199.16796875 C113.689375 200.09996094 113.7615625 201.03195313 113.8359375 201.9921875 C114.44828019 210.40339467 114.7452728 218.72857083 114.6171875 227.16796875 C115.5865625 227.45671875 116.5559375 227.74546875 117.5546875 228.04296875 C120.6171875 229.16796875 120.6171875 229.16796875 121.6171875 231.16796875 C119.9671875 231.82796875 118.3171875 232.48796875 116.6171875 233.16796875 C116.6486084 233.84375977 116.6800293 234.51955078 116.71240234 235.21582031 C116.83725441 238.28286147 116.91519754 241.34936877 116.9921875 244.41796875 C117.04246094 245.48144531 117.09273438 246.54492188 117.14453125 247.640625 C117.29025802 255.36414402 117.29025802 255.36414402 115.25488281 257.79492188 C113.59375 258.90234375 113.59375 258.90234375 110.6171875 260.16796875 C114.2471875 260.49796875 117.8771875 260.82796875 121.6171875 261.16796875 C105.04246924 282.34677541 77.95528803 295.88882145 52.6171875 303.16796875 C51.97523438 303.35584961 51.33328125 303.54373047 50.671875 303.73730469 C40.43274674 306.71367873 30.75960236 308.31951239 20.1015625 308.3359375 C19.32387512 308.3392659 18.54618774 308.3425943 17.74493408 308.34602356 C16.11137475 308.35104697 14.47780533 308.35343332 12.84423828 308.35327148 C10.38686618 308.35545129 7.92994891 308.37363803 5.47265625 308.39257812 C-24.6419575 308.50532208 -55.26931504 298.47144242 -79.3828125 280.16796875 C-80.21167969 279.54664063 -81.04054687 278.9253125 -81.89453125 278.28515625 C-96.98744097 266.58045075 -110.00870607 253.242986 -120.3828125 237.16796875 C-121.30900391 235.73517578 -121.30900391 235.73517578 -122.25390625 234.2734375 C-135.09959672 213.35985235 -143.34877959 186.73035049 -143.62109375 162.21484375 C-143.63093292 161.48106506 -143.64077209 160.74728638 -143.65090942 159.99127197 C-143.97851708 129.24161922 -143.97851708 129.24161922 -139.3828125 114.16796875 C-139.13611816 113.34490234 -138.88942383 112.52183594 -138.63525391 111.67382812 C-126.17454735 71.19374272 -99.5139054 37.19038004 -62.11352539 16.99511719 C-42.89416508 7.04003015 -21.79563186 0.03349537 0 0 Z " fill="#E29C30" transform="translate(250.3828125,25.83203125)"/>
<path d="M0 0 C0.99 -0.33 1.98 -0.66 3 -1 C21.11136961 -2.16785787 21.11136961 -2.16785787 29 3 C29.69351563 3.42410156 30.38703125 3.84820312 31.1015625 4.28515625 C38.11683321 9.00141502 41.9016287 15.25407174 45 23 C45 27.95 45 32.9 45 38 C55.89 38 66.78 38 78 38 C79.46264599 40.92529197 79.32832236 43.95327355 79.5078125 47.16796875 C79.60764871 48.63358216 79.70926956 50.09907488 79.8125 51.56445312 C79.97298368 53.87018287 80.12431929 56.17449326 80.24511719 58.48266602 C80.46368287 68.78799095 80.46368287 68.78799095 85.49609375 77.3359375 C86.41152954 78.02308838 86.41152954 78.02308838 87.34545898 78.72412109 C90.21136709 80.9341308 90.99250977 83.62194452 92 87 C92.1323426 89.6758117 92.04714103 92.3185072 92 95 C93.27617187 94.97679687 94.55234375 94.95359375 95.8671875 94.9296875 C97.5364525 94.91093171 99.2057238 94.89273131 100.875 94.875 C101.71675781 94.85824219 102.55851563 94.84148437 103.42578125 94.82421875 C104.23144531 94.81777344 105.03710938 94.81132812 105.8671875 94.8046875 C106.61081543 94.79421387 107.35444336 94.78374023 108.12060547 94.77294922 C110 95 110 95 112 97 C113.7283965 103.46717897 113.68608273 110.34583807 114 117 C114.0407666 117.76231934 114.0815332 118.52463867 114.12353516 119.31005859 C114.97018653 136.7078436 114.97018653 136.7078436 109 144 C108.67 144 108.34 144 108 144 C105.70030581 115.93577982 105.70030581 115.93577982 106 102 C101.38 102 96.76 102 92 102 C92.04125 103.93875 92.0825 105.8775 92.125 107.875 C92.1953125 111.1796875 92.1953125 111.1796875 92 114 C91.34 114.66 90.68 115.32 90 116 C88.35 115.67 86.7 115.34 85 115 C85 110.71 85 106.42 85 102 C74.77 102 64.54 102 54 102 C54 105.63 54 109.26 54 113 C53.34 113.99 52.68 114.98 52 116 C47.125 115.125 47.125 115.125 46 114 C45.85644883 109.99779347 45.95783597 106.00558317 46 102 C39.4 102 32.8 102 26 102 C26.12117188 103.38445312 26.24234375 104.76890625 26.3671875 106.1953125 C30.48825674 153.98147356 30.48825674 153.98147356 30 174 C27.69 174 25.38 174 23 174 C22.47505516 165.94147421 21.95326262 157.88275291 21.43539429 149.82376957 C21.19478099 146.08089871 20.95311884 142.33810196 20.70898438 138.59545898 C20.47302877 134.97758685 20.2399267 131.35954074 20.00872803 127.74136162 C19.92042773 126.36714673 19.83113267 124.99299536 19.74078369 123.61891365 C19.26669227 116.3985717 18.8895702 109.23660288 19 102 C16.03 102 13.06 102 10 102 C10.03464355 103.13775879 10.06928711 104.27551758 10.10498047 105.44775391 C10.09896365 112.94744649 9.12796733 120.38959077 8.3203125 127.8359375 C8.1453278 129.48145221 7.97076515 131.12701184 7.79660034 132.77261353 C7.33791339 137.09593053 6.87361783 141.41862689 6.40808105 145.74121094 C5.94191519 150.07842298 5.48089499 154.41618123 5.01953125 158.75390625 C4.33636129 165.17267289 3.65019102 171.5911089 2.96142578 178.00927734 C1.96061177 187.33808811 0.97989171 196.66896898 0 206 C8.25 206 16.5 206 25 206 C24.67 198.74 24.34 191.48 24 184 C26.31 184 28.62 184 31 184 C31.33604352 186.91637766 31.66893586 189.83305652 32 192.75 C32.14308594 193.9875 32.14308594 193.9875 32.2890625 195.25 C32.42441406 196.44882812 32.42441406 196.44882812 32.5625 197.671875 C32.64628906 198.4050293 32.73007812 199.13818359 32.81640625 199.89355469 C32.99322479 201.92226522 33 203.96359846 33 206 C33.57185028 206 34.14370056 206 34.73287964 206 C50.15525309 206 65.57762655 206 81 206 C82.97613281 205.91298828 82.97613281 205.91298828 84.9921875 205.82421875 C86.61976212 205.77760246 88.2473682 205.73207521 89.875 205.6875 C91.09896484 205.6246582 91.09896484 205.6246582 92.34765625 205.56054688 C98.39590019 205.43721401 98.39590019 205.43721401 101.5703125 208.39453125 C103 211 103 211 103 213 C77.07089492 213.0233258 51.1417914 213.0409776 25.21267796 213.05181217 C13.17425245 213.05697581 1.13583344 213.06401979 -10.90258789 213.07543945 C-21.39117644 213.08538423 -31.87976029 213.09185293 -42.36835343 213.09408849 C-47.92566864 213.09539595 -53.48297038 213.09848402 -59.0402813 213.10573006 C-64.2645276 213.11248702 -69.4887548 213.11461763 -74.71300507 213.11310768 C-76.63636694 213.11338416 -78.55972942 213.11539119 -80.48308754 213.11920547 C-83.09706095 213.12413767 -85.71096101 213.12300006 -88.32493591 213.12025452 C-89.09632178 213.12316736 -89.86770765 213.1260802 -90.66246885 213.12908131 C-95.88587879 213.11412121 -95.88587879 213.11412121 -97 212 C-97.44209403 205.34767471 -96.80847178 198.69436928 -96.1171875 192.08203125 C-96.02261261 191.13630249 -95.92803772 190.19057373 -95.83059692 189.21618652 C-95.62470446 187.16202746 -95.41661075 185.10808808 -95.20654297 183.05435181 C-94.62526327 177.37055565 -94.06005522 171.68514898 -93.4921875 166 C-93.37115662 164.79297928 -93.25012573 163.58595856 -93.12542725 162.34236145 C-91.89195215 150.0069536 -90.72865925 137.66506969 -89.56682777 125.32275963 C-87.62110401 104.66354726 -85.65856033 84.00518826 -83.56933594 63.35995483 C-83.3579424 61.25985779 -83.14956496 59.15945476 -82.94433594 57.05874634 C-82.6641171 54.19838137 -82.37277125 51.33937826 -82.078125 48.48046875 C-81.9981427 47.64103729 -81.9181604 46.80160583 -81.83575439 45.93673706 C-81.22873405 40.22873405 -81.22873405 40.22873405 -79 38 C-76.01904297 37.77294922 -76.01904297 37.77294922 -72.2421875 37.8046875 C-71.24761032 37.80893234 -71.24761032 37.80893234 -70.23294067 37.81326294 C-68.11344417 37.82446565 -65.99436896 37.84956949 -63.875 37.875 C-62.43880818 37.88502972 -61.00260975 37.89415559 -59.56640625 37.90234375 C-56.04413372 37.924405 -52.52210797 37.95893506 -49 38 C-49.02827881 36.99187256 -49.05655762 35.98374512 -49.08569336 34.94506836 C-49.1085732 33.59750458 -49.13075265 32.24992879 -49.15234375 30.90234375 C-49.18062256 29.58484131 -49.20890137 28.26733887 -49.23803711 26.90991211 C-48.73240011 18.60450021 -44.64009547 12.18085584 -38.75 6.5 C-26.99865636 -2.85430339 -14.19244799 -1.94798306 0 0 Z " fill="#070501" transform="translate(255,74)"/>
<path d="M0 0 C2.97 0 5.94 0 9 0 C10.18852611 13.12436275 11.1981509 26.25481983 11.99127197 39.40875244 C12.07918189 40.86566569 12.16845649 42.32249735 12.25921631 43.77923584 C12.84227824 53.19765669 13.11675971 62.56099672 13 72 C15.31 72 17.62 72 20 72 C19.9498877 71.23071671 19.89977539 70.46143341 19.84814453 69.6688385 C19.37433451 62.38733331 18.90332647 55.10565466 18.43539429 47.82376957 C18.19478099 44.08089871 17.95311884 40.33810196 17.70898438 36.59545898 C17.47302877 32.97758685 17.2399267 29.35954074 17.00872803 25.74136162 C16.92042773 24.36714673 16.83113267 22.99299536 16.74078369 21.61891365 C16.61354553 19.68109543 16.49030682 17.74301591 16.3671875 15.80493164 C16.26059814 14.15612755 16.26059814 14.15612755 16.15185547 12.47401428 C15.97026147 8.31966843 16 4.15831286 16 0 C22.6 0 29.2 0 36 0 C36.495 5.94 36.495 5.94 37 12 C39.475 12.495 39.475 12.495 42 13 C43.96072549 9.07854902 43.60306273 4.36631 44 0 C54.23 0 64.46 0 75 0 C75.495 6.435 75.495 6.435 76 13 C78.475 12.505 78.475 12.505 81 12 C81.33 8.04 81.66 4.08 82 0 C86.62 0 91.24 0 96 0 C96.99 13.2 97.98 26.4 99 40 C100.98 36.7 102.96 33.4 105 30 C106 29 106 29 108.9375 28.8125 C112 29 112 29 114 31 C113.73632205 36.80091496 111.3472105 40.65813622 107.28515625 44.7109375 C102.52288732 49 102.52288732 49 99 49 C99.10828125 50.39798828 99.10828125 50.39798828 99.21875 51.82421875 C99.83109269 60.23542592 100.1280853 68.56060208 100 77 C100.969375 77.28875 101.93875 77.5775 102.9375 77.875 C106 79 106 79 107 81 C105.35 81.66 103.7 82.32 102 83 C102.0314209 83.67579102 102.0628418 84.35158203 102.09521484 85.04785156 C102.22006691 88.11489272 102.29801004 91.18140002 102.375 94.25 C102.42527344 95.31347656 102.47554688 96.37695312 102.52734375 97.47265625 C102.58311983 100.42878825 102.56808364 103.09715814 102 106 C99.22493579 108.62861292 97.67887406 110 93.8125 110 C92 109 92 109 90.953125 106.95703125 C88.63935977 104.63863849 88.00766328 104.69102676 84.83984375 104.57421875 C83.20538409 104.59147949 81.57104004 104.63002596 79.9375 104.6875 C78.69516602 104.70200195 78.69516602 104.70200195 77.42773438 104.71679688 C73.06432783 104.68697041 73.06432783 104.68697041 69 106 C69 105.34 69 104.68 69 104 C53.82 104 38.64 104 23 104 C21 88 21 88 21 82 C18.69 82 16.38 82 14 82 C14.24556641 83.48693359 14.24556641 83.48693359 14.49609375 85.00390625 C15.39593811 91.30281678 15.05617256 97.65250121 15 104 C6.75 104 -1.5 104 -10 104 C-10 95.74910789 -9.74792854 87.9809604 -8.828125 79.84375 C-8.70561371 78.71364502 -8.58310242 77.58354004 -8.45687866 76.41918945 C-8.06071234 72.77875898 -7.65550215 69.13940126 -7.25 65.5 C-6.97520205 62.99159628 -6.70095403 60.48313226 -6.42724609 57.97460938 C-5.75085297 51.79001505 -5.06702833 45.60627316 -4.38000488 39.42285156 C-3.9212374 35.29055469 -3.46550574 31.15792706 -3.01000977 27.02526855 C-2.01674061 18.01570918 -1.01395336 9.00725538 0 0 Z " fill="#E39C31" transform="translate(265,176)"/>
<path d="M0 0 C9.9 0 19.8 0 30 0 C30.33 6.6 30.66 13.2 31 20 C32.32 20.33 33.64 20.66 35 21 C39.97214463 16.02785537 36.64885494 7.02290122 37 0 C54.49 0 71.98 0 90 0 C90.33 6.6 90.66 13.2 91 20 C92.98 20.495 92.98 20.495 95 21 C96.58403524 19.41596476 96.21974935 17.7228362 96.31640625 15.52734375 C96.35451416 14.71773193 96.39262207 13.90812012 96.43188477 13.07397461 C96.47498779 12.03893799 96.51809082 11.00390137 96.5625 9.9375 C96.706875 6.658125 96.85125 3.37875 97 0 C105.91 0 114.82 0 124 0 C124.80443697 3.21774789 125.17725163 5.72418116 125.31640625 8.984375 C125.35830078 9.91894531 125.40019531 10.85351562 125.44335938 11.81640625 C125.48267578 12.78449219 125.52199219 13.75257813 125.5625 14.75 C125.60568359 15.73355469 125.64886719 16.71710938 125.69335938 17.73046875 C125.79922052 20.15351275 125.90130171 22.5766554 126 25 C125.23743896 25.06662842 124.47487793 25.13325684 123.68920898 25.2019043 C119.2559637 25.5902912 114.8442515 26.00010154 110.4375 26.625 C107 27 107 27 105 26 C96.67428811 25.2711498 90.34674063 26.33268188 83.25 30.6875 C77.475633 36.62226608 76.930614 41.62447397 76 50 C69.73 50 63.46 50 57 50 C53.48022194 77.26792768 50.74637841 104.61029266 48.01034546 131.96629333 C47.04043287 141.64790298 46.02930555 151.32452781 45 161 C33.45 161 21.9 161 10 161 C9.76812988 157.4613623 9.53625977 153.92272461 9.29736328 150.27685547 C8.52320119 138.46252381 7.74885259 126.64820438 6.97441292 114.83389091 C6.50580076 107.68500221 6.0372482 100.53610961 5.56884766 93.38720703 C5.15950616 87.13968812 4.75004094 80.89217733 4.34044063 74.64467537 C4.12455129 71.3517239 3.9087332 68.0587678 3.6930275 64.76580429 C3.52951666 62.2697567 3.36590613 59.77371564 3.20219231 57.27768135 C3.04300614 54.84942363 2.88415265 52.42114408 2.72564888 49.99284172 C2.35211772 44.28614599 1.97312423 38.57992877 1.57774317 32.87470758 C1.43517748 30.81656122 1.29378425 28.75833726 1.15267754 26.70009041 C0.97504049 24.11664513 0.79500457 21.53336323 0.61210823 18.95028496 C0.53191885 17.77874933 0.45172947 16.60721371 0.36911011 15.400177 C0.29770247 14.37897829 0.22629482 13.35777958 0.15272331 12.30563545 C-0.03659978 8.20781219 0 4.10219438 0 0 Z " fill="#E29C30" transform="translate(203,119)"/>
<path d="M0 0 C8.25 0 16.5 0 25 0 C25.33 14.52 25.66 29.04 26 44 C28.97 40.37 31.94 36.74 35 33 C36.82642936 30.82751034 38.65852668 28.65975266 40.5 26.5 C44.61436989 21.663646 48.65525567 16.77503303 52.63671875 11.828125 C53.41660156 10.89484375 54.19648438 9.9615625 55 9 C55.4964502 8.2376001 55.99290039 7.4752002 56.50439453 6.68969727 C59.42748342 2.64989149 61.45845856 0.32213914 66.45581055 -0.72216797 C70.50885787 -0.8855624 74.45506668 -0.78906566 78.5 -0.5625 C79.90872555 -0.51728205 81.31759132 -0.47623022 82.7265625 -0.43945312 C86.15465165 -0.33379284 89.57549729 -0.18618347 93 0 C90.47575293 3.84347804 87.94870414 7.32279282 84.8125 10.6875 C81.68062224 14.10964936 78.66555304 17.57930176 75.75 21.1875 C72.0556827 25.75678718 68.23944944 30.20030995 64.375 34.625 C58.94562081 40.86018882 58.94562081 40.86018882 53.625 47.1875 C53.08101562 47.84105469 52.53703125 48.49460937 51.9765625 49.16796875 C50.79991327 50.9420178 50.79991327 50.9420178 51.27050781 52.91625977 C52.08315635 55.23752994 52.99855944 56.40716342 54.6953125 58.171875 C55.2426001 58.749375 55.7898877 59.326875 56.35375977 59.921875 C56.93826904 60.52515625 57.52277832 61.1284375 58.125 61.75 C59.32495941 63.01492279 60.52418553 64.28054163 61.72265625 65.546875 C62.2964502 66.14951172 62.87024414 66.75214844 63.46142578 67.37304688 C67.35365986 71.48885899 70.99838476 75.82018578 74.6640625 80.13671875 C75.67148972 81.32064045 76.67931585 82.50422281 77.6875 83.6875 C78.19611572 84.28498047 78.70473145 84.88246094 79.22875977 85.49804688 C83.35132952 90.31103607 87.6143164 94.97823045 91.9909668 99.5612793 C95.07460741 102.83216185 97.54755683 106.24184586 100 110 C66.97355832 112.4276302 66.97355832 112.4276302 60.3203125 107.234375 C57.68313617 104.40527372 55.7728867 101.22422838 54.00048828 97.79931641 C52.49639314 95.09429416 50.45546972 93.0270213 48.3125 90.8125 C44.55549539 86.67641024 41.01475474 82.39945436 37.53125 78.03125 C33.81352557 73.57916025 29.88014412 69.31127124 26 65 C25.67 79.85 25.34 94.7 25 110 C16.75 110 8.5 110 0 110 C0 73.7 0 37.4 0 0 Z " fill="#E19B30" transform="translate(149,348)"/>
<path d="M0 0 C9.24 0 18.48 0 28 0 C32.49903772 10.12283488 32.49903772 10.12283488 34.44189453 15.19067383 C35.09244308 16.8820623 35.09244308 16.8820623 35.75613403 18.60762024 C36.21043793 19.79542587 36.66474182 20.98323151 37.1328125 22.20703125 C37.61528787 23.46264032 38.09803005 24.7181469 38.58102417 25.97355652 C40.09829318 29.91887116 41.61181246 33.86561852 43.125 37.8125 C44.88722948 42.40799791 46.65102076 47.00288772 48.41799545 51.59656334 C49.1209291 53.42610211 49.82136577 55.25659963 50.52175903 57.08711243 C50.94915375 58.19894394 51.37654846 59.31077545 51.81689453 60.45629883 C52.19121613 61.43286942 52.56553772 62.40944 52.95120239 63.41560364 C53.86933033 65.6780101 54.87040387 67.83707311 56 70 C56.24976593 69.34426498 56.49953186 68.68852997 56.75686646 68.01292419 C59.13777465 61.76276155 61.51989719 55.51306319 63.90330696 49.26385403 C65.12791471 46.05285699 66.35208982 42.84169655 67.57519531 39.63012695 C72.62148355 26.38068957 77.67252986 13.13929924 83 0 C92.24 0 101.48 0 111 0 C110.29367811 3.53160943 109.69569621 6.05302397 108.35205078 9.25976562 C107.84249596 10.4852713 107.84249596 10.4852713 107.32264709 11.73553467 C106.95062668 12.61687073 106.57860626 13.49820679 106.1953125 14.40625 C105.804077 15.34317688 105.41284149 16.28010376 105.00975037 17.24542236 C103.71934942 20.33219381 102.42226319 23.41610695 101.125 26.5 C100.22614372 28.64601757 99.32762913 30.79217828 98.42944336 32.93847656 C90.29167367 52.36819023 82.09312374 71.77246641 73.88342285 91.171875 C71.23313052 97.43870209 68.60817145 103.71549941 66 110 C59.4 110 52.8 110 46 110 C41.50017071 101.00034141 41.50017071 101.00034141 40.17919922 97.8269043 C39.87656158 97.1038208 39.57392395 96.3807373 39.26211548 95.63574219 C38.94616425 94.87293945 38.63021301 94.11013672 38.3046875 93.32421875 C37.78689224 92.08393921 37.78689224 92.08393921 37.25863647 90.81860352 C36.12819685 88.10929528 35.00163142 85.39839375 33.875 82.6875 C33.08200711 80.78543747 32.28870771 78.88350271 31.49511719 76.98168945 C29.83829856 73.01043547 28.18281384 69.03862945 26.52832031 65.06640625 C22.83236093 56.19524744 19.12286258 47.32975639 15.41217041 38.4647522 C14.27908425 35.75700296 13.14702101 33.04882799 12.01513672 30.34057617 C11.307038 28.64759364 10.59886947 26.95464031 9.890625 25.26171875 C9.55616364 24.46146774 9.22170227 23.66121674 8.87710571 22.8367157 C7.32368966 19.1274359 5.75722708 15.4249982 4.15429688 11.73681641 C3.87084412 11.08356888 3.58739136 10.43032135 3.29534912 9.75727844 C2.54126223 8.02519698 1.78206849 6.29534131 1.02246094 4.56567383 C0 2 0 2 0 0 Z " fill="#E19B30" transform="translate(283,348)"/>
<path d="M0 0 C4.95 0 9.9 0 15 0 C20.82439695 80.59319609 20.82439695 80.59319609 23.11730957 114.9046936 C23.28727358 117.44092934 23.45902747 119.97704586 23.63269043 122.51303101 C23.87248501 126.0239773 24.10522708 129.53532153 24.3359375 133.046875 C24.40438873 134.03200577 24.47283997 135.01713654 24.54336548 136.03211975 C25.07925713 144.40406519 25 152.55086776 25 161 C11.47 161 -2.06 161 -16 161 C-14.16672644 136.76004963 -11.88584248 112.60733812 -9.34228516 88.43286133 C-9.07966173 85.93571919 -8.81712934 83.43856748 -8.5546875 80.94140625 C-8.42458282 79.70368973 -8.29447815 78.46597321 -8.16043091 77.19075012 C-7.26343239 68.61861988 -6.40361479 60.04339121 -5.5703125 51.46484375 C-5.45756989 50.30434509 -5.34482727 49.14384644 -5.22866821 47.94818115 C-4.69764395 42.46766211 -4.17120105 36.98673026 -3.64892578 31.50537109 C-2.63727448 20.96647369 -1.4832086 10.48358805 0 0 Z " fill="#E29B30" transform="translate(181,119)"/>
<path d="M0 0 C2.97 0 5.94 0 9 0 C10.18852611 13.12436275 11.1981509 26.25481983 11.99127197 39.40875244 C12.07918189 40.86566569 12.16845649 42.32249735 12.25921631 43.77923584 C12.84227824 53.19765669 13.11675971 62.56099672 13 72 C13.66 72.33 14.32 72.66 15 73 C14.01 73 13.02 73 12 73 C12.18129815 76.43793339 12.18129815 76.43793339 13 80 C14.93597032 81.51294288 14.93597032 81.51294288 17 82 C16.01 82 15.02 82 14 82 C14.24556641 83.48693359 14.24556641 83.48693359 14.49609375 85.00390625 C15.39593811 91.30281678 15.05617256 97.65250121 15 104 C6.75 104 -1.5 104 -10 104 C-10 95.74910789 -9.74792854 87.9809604 -8.828125 79.84375 C-8.70561371 78.71364502 -8.58310242 77.58354004 -8.45687866 76.41918945 C-8.06071234 72.77875898 -7.65550215 69.13940126 -7.25 65.5 C-6.97520205 62.99159628 -6.70095403 60.48313226 -6.42724609 57.97460938 C-5.75085297 51.79001505 -5.06702833 45.60627316 -4.38000488 39.42285156 C-3.9212374 35.29055469 -3.46550574 31.15792706 -3.01000977 27.02526855 C-2.01674061 18.01570918 -1.01395336 9.00725538 0 0 Z " fill="#E19B30" transform="translate(265,176)"/>
<path d="M0 0 C7.92 0 15.84 0 24 0 C24 22.77 24 45.54 24 69 C16.08 69 8.16 69 0 69 C0 46.23 0 23.46 0 0 Z " fill="#DE992F" transform="translate(254,389)"/>
<path d="M0 0 C4.11660618 1.25684661 7.64522142 2.78182386 11.34375 4.9765625 C12.83358398 5.85417236 12.83358398 5.85417236 14.35351562 6.74951172 C15.91102539 7.67787842 15.91102539 7.67787842 17.5 8.625 C19.64555999 9.89108832 21.79139236 11.15671519 23.9375 12.421875 C24.97390625 13.03482422 26.0103125 13.64777344 27.078125 14.27929688 C30.86700874 16.51058469 34.67746941 18.70198785 38.5 20.875 C39.5828125 21.49117187 40.665625 22.10734375 41.78125 22.7421875 C42.5134375 23.15726563 43.245625 23.57234375 44 24 C42 26 42 26 39 27 C39.0314209 27.67579102 39.0628418 28.35158203 39.09521484 29.04785156 C39.22006691 32.11489272 39.29801004 35.18140002 39.375 38.25 C39.42527344 39.31347656 39.47554688 40.37695312 39.52734375 41.47265625 C39.58311983 44.42878825 39.56808364 47.09715814 39 50 C36.22493579 52.62861292 34.67887406 54 30.8125 54 C29 53 29 53 27.953125 50.95703125 C25.63935977 48.63863849 25.00766328 48.69102676 21.83984375 48.57421875 C20.20538409 48.59147949 18.57104004 48.63002596 16.9375 48.6875 C16.10927734 48.69716797 15.28105469 48.70683594 14.42773438 48.71679688 C10.06432783 48.68697041 10.06432783 48.68697041 6 50 C3.02385958 33.43070758 1.49994624 16.7534188 0 0 Z " fill="#FDFCFB" transform="translate(328,232)"/>
<path d="M0 0 C3.64752761 2.0953882 6.82271894 4.87951628 8 9 C8.45042231 14.58523668 8.25122574 18.23153558 5 23 C1.53672571 26.20986397 -1.31274899 27.31574613 -5.9375 27.625 C-10.7189573 27.43749187 -13.21031402 25.95364339 -16.625 22.703125 C-19.62583873 18.98617702 -20.46141215 15.8596903 -20.30859375 11.0234375 C-19.68640601 6.9437761 -17.56249708 4.33986148 -14.4921875 1.70703125 C-9.77711491 -1.50579728 -5.39554071 -1.70695288 0 0 Z " fill="#DE992F" transform="translate(272,348)"/>
<path d="M0 0 C7.70407754 -0.52727527 14.31174089 -0.15667013 21 4 C26.57491491 9.00528374 30.77234232 13.86118346 31.1953125 21.55078125 C31.13020833 25.03385417 31.06510417 28.51692708 31 32 C24.4 32 17.8 32 11 32 C10.896875 30.040625 10.79375 28.08125 10.6875 26.0625 C9.89321964 16.28755638 7.75266572 10.29510446 1.42578125 2.75 C0 1 0 1 0 0 Z " fill="#DF9930" transform="translate(262,80)"/>
<path d="M0 0 C-0.39832031 0.58007812 -0.79664063 1.16015625 -1.20703125 1.7578125 C-6.661701 9.80046425 -9.88062088 16.00886972 -10.5625 25.75 C-10.706875 27.8125 -10.85125 29.875 -11 32 C-17.6 32 -24.2 32 -31 32 C-31.65066144 15.08280255 -31.65066144 15.08280255 -25.234375 8.0703125 C-17.45092594 0.68522895 -10.50997443 -0.52163476 0 0 Z " fill="#DF9A30" transform="translate(244,80)"/>
<path d="M0 0 C6.42556652 1.70088525 9.61316819 6.68861365 12.875 12.125 C14 16 14 16 14 29 C5.42 29 -3.16 29 -12 29 C-12 11.15495868 -12 11.15495868 -5.109375 4.05078125 C-3.47122267 2.62239233 -1.74284357 1.29858933 0 0 Z " fill="#DC972F" transform="translate(252,83)"/>
<path d="M0 0 C-1.875 4.75 -1.875 4.75 -3 7 C-3.2275015 8.87056791 -3.40962811 10.74685958 -3.5625 12.625 C-3.706875 14.39875 -3.85125 16.1725 -4 18 C-9.28 18 -14.56 18 -20 18 C-20 8.51282051 -20 8.51282051 -16 4 C-10.61028708 -0.01586453 -6.62357183 -0.54069974 0 0 Z " fill="#DC972F" transform="translate(306,151)"/>
<path d="M0 0 C0.33810356 4.49965478 0.66962609 8.99977161 1 13.5 C1.09539062 14.7684375 1.19078125 16.036875 1.2890625 17.34375 C1.74375792 23.5795729 2.12631546 29.74738456 2 36 C1.01 35.34 0.02 34.68 -1 34 C-0.505 33.505 -0.505 33.505 0 33 C-0.969375 32.773125 -1.93875 32.54625 -2.9375 32.3125 C-6 30 -6 30 -6.62109375 27.43359375 C-6.8994283 23.94370665 -6.9891602 20.5012562 -7 17 C-7.01413907 15.60286271 -7.02846563 14.20572731 -7.04296875 12.80859375 C-7.06748787 9.20512926 -7.04485463 5.60332162 -7 2 C-2.25 0 -2.25 0 0 0 Z " fill="#0E0A04" transform="translate(371,223)"/>
<path d="M0 0 C3.0625 0.1875 3.0625 0.1875 5.0625 2.1875 C4.75786859 8.88939092 1.35500647 13.18136747 -3.4375 17.5625 C-6.34602349 20.14050946 -6.73295399 20.1875 -10.9375 20.1875 C-10.71845742 13.39717997 -8.32059727 0.53110195 0 0 Z " fill="#FAF9F7" transform="translate(373.9375,204.8125)"/>
<path d="M0 0 C3.375 1.75 3.375 1.75 4.0859375 3.859375 C4.18132812 4.48328125 4.27671875 5.1071875 4.375 5.75 C-2.728056 8.57107189 -9.24068521 10.18161299 -16.6875 7.75 C-17.326875 7.42 -17.96625 7.09 -18.625 6.75 C-18.625 4.44 -18.625 2.13 -18.625 -0.25 C-12.66994835 -2.23501722 -5.94757439 -1.97893976 0 0 Z " fill="#FDFBF7" transform="translate(295.625,249.25)"/>
<path d="M0 0 C3.64500004 0.57959365 6.4180833 1.55664517 9.625 3.375 C10.38039063 3.79523438 11.13578125 4.21546875 11.9140625 4.6484375 C13.95925039 5.9735967 15.50847684 7.07147005 17 9 C17 10.32 17 11.64 17 13 C10.11168659 13.62621031 4.41097745 11.35806067 -2 9 C-2.58984375 6.64453125 -2.58984375 6.64453125 -3 4 C-1.5625 1.6875 -1.5625 1.6875 0 0 Z " fill="#FDFAF6" transform="translate(296,212)"/>
<path d="M0 0 C4.55555556 0.55555556 4.55555556 0.55555556 6 2 C6.12635423 4.08043713 6.17581705 6.16576212 6.1875 8.25 C6.20167969 9.38953125 6.21585937 10.5290625 6.23046875 11.703125 C6.00592304 14.91527045 5.37296905 17.11296626 4 20 C3.01 20 2.02 20 1 20 C-2.14195245 14.10883916 -2.84985794 8.655381 -2 2 C-1.34 1.34 -0.68 0.68 0 0 Z " fill="#FDF9F4" transform="translate(328,194)"/>
<path d="M0 0 C0.74805717 7.02639415 1.13794954 13.93391809 1 21 C-2.48420592 17.8296865 -4.86503346 14.26911027 -7.25 10.25 C-7.61351562 9.64800781 -7.97703125 9.04601562 -8.3515625 8.42578125 C-9.23953297 6.95361969 -10.12049158 5.4772326 -11 4 C-7.88789178 0.88789178 -4.34860953 0 0 0 Z " fill="#E39F38" transform="translate(366,259)"/>
<path d="M0 0 C2.64 0 5.28 0 8 0 C10.61281488 5.87883349 10.18328202 11.70731728 10 18 C8.02 18 6.04 18 4 18 C3.96261719 17.34773438 3.92523438 16.69546875 3.88671875 16.0234375 C3.48187768 10.64143271 2.73614693 6.75851639 0 2 C0 1.34 0 0.68 0 0 Z " fill="#DC972F" transform="translate(320,151)"/>
<path d="M0 0 C3.30031779 3.88966025 5.38863297 7.4301077 8 12 C2.06 12 -3.88 12 -10 12 C-3.71428571 3.42857143 -3.71428571 3.42857143 0 0 Z " fill="#E5A039" transform="translate(346,268)"/>
<path d="M0 0 C3.875 1.75 3.875 1.75 5 4 C5.13559318 7.00474497 5.04299016 9.99068847 5 13 C2.03 13 -0.94 13 -4 13 C-3.91266424 11.39482903 -3.80447776 9.79078338 -3.6875 8.1875 C-3.62949219 7.29417969 -3.57148438 6.40085938 -3.51171875 5.48046875 C-2.93686419 2.69396 -2.1793144 1.75864246 0 0 Z " fill="#D6932E" transform="translate(312,156)"/>
<path d="M0 0 C3.317124 4.422832 3.30466674 5.71910976 3 11 C2.01 11 1.02 11 0 11 C0 7.37 0 3.74 0 0 Z " fill="#C28629" transform="translate(337,158)"/>
</svg>
